<svg width="350" height="350" viewBox="0 0 350 350" fill="none" xmlns="http://www.w3.org/2000/svg">
<path d="M175 168L207.622 149.989M175 168L142 149.989M175 168V211.5M80 77L45.5133 96.214C45.1964 96.3906 45 96.7249 45 97.0876V142M142 43.2634L174.513 25.2695C174.816 25.102 175.184 25.1029 175.486 25.2719L207.622 43.2634M270 77.5L303.982 96.2149C304.302 96.3908 304.5 96.7264 304.5 97.0909V142M271.384 114.784L299.066 99.5M78.5 114.784L50 99.229M45 209.5V253.405C45 253.772 45.2007 254.109 45.5229 254.284L80 273M140 306L174.513 325.229C174.816 325.397 175.184 325.397 175.487 325.229L210 306M270 273L303.982 254.285C304.302 254.109 304.5 253.774 304.5 253.409V209.5M175 282V321" stroke="white" stroke-width="10" stroke-linecap="round"/>
</svg>
