<svg id="Calque_1" data-name="Calque 1" xmlns="http://www.w3.org/2000/svg" viewBox="0 0 22.17 22.18"><defs><style>.cls-1{fill:#0450a6;}</style></defs><path class="cls-1" d="M1.32,21.59c0-.42,0-.84,0-1.26a.63.63,0,0,1,.65-.7.62.62,0,0,1,.63.7q0,.84,0,1.68c0,.2,0,.27.27.27.54,0,1.09,0,1.64,0a.61.61,0,0,1,.69.64.63.63,0,0,1-.7.64c-.83,0-1.65,0-2.47,0a.64.64,0,0,1-.71-.73C1.31,22.42,1.32,22,1.32,21.59Z" transform="translate(-1.31 -1.39)"/><path class="cls-1" d="M1.32,3.35c0-.42,0-.84,0-1.26A.64.64,0,0,1,2,1.39c.83,0,1.66,0,2.49,0A.64.64,0,0,1,5.2,2a.62.62,0,0,1-.7.64H2.92c-.24,0-.33,0-.32.3,0,.54,0,1.08,0,1.62s-.25.73-.64.72S1.32,5,1.32,4.58,1.32,3.76,1.32,3.35Z" transform="translate(-1.31 -1.39)"/><path class="cls-1" d="M23.48,3.35c0,.43,0,.85,0,1.27a.64.64,0,1,1-1.28,0c0-.54,0-1.09,0-1.64,0-.23,0-.31-.29-.31-.54,0-1.07,0-1.61,0A.62.62,0,0,1,19.6,2a.64.64,0,0,1,.7-.65c.83,0,1.67,0,2.5,0a.64.64,0,0,1,.68.7C23.49,2.51,23.48,2.93,23.48,3.35Z" transform="translate(-1.31 -1.39)"/><path class="cls-1" d="M23.48,21.62c0,.42,0,.84,0,1.26a.63.63,0,0,1-.67.68c-.85,0-1.7,0-2.56,0a.63.63,0,0,1-.65-.66.61.61,0,0,1,.65-.62c.53,0,1.06,0,1.58,0,.32,0,.39-.09.38-.39,0-.51,0-1,0-1.55a.64.64,0,1,1,1.28,0C23.49,20.77,23.48,21.19,23.48,21.62Z" transform="translate(-1.31 -1.39)"/><path class="cls-1" d="M22.09,12.48c0-1.68,0-3.36,0-5a.84.84,0,0,0-.47-.82q-4.36-2.52-8.72-5a.92.92,0,0,0-1,0Q7.53,4.12,3.17,6.63a.84.84,0,0,0-.47.79c0,3.37,0,6.75,0,10.12a.78.78,0,0,0,.43.77C6.06,20,9,21.68,11.89,23.38a.92.92,0,0,0,1,0q4.35-2.53,8.71-5.06a.84.84,0,0,0,.47-.81C22.08,15.83,22.09,14.15,22.09,12.48Zm-10.33,9v.37l-7.1-4.12,2-1.13,3.4-2a.67.67,0,0,0,.34-.95.68.68,0,0,0-1-.17l-5,2.86a.89.89,0,0,1-.38.17V8.41l1.8,1,5.67,3.25a.48.48,0,0,1,.3.49Q11.76,17.31,11.76,21.43Zm.84-9.81a.33.33,0,0,1-.37,0L4.81,7.37l-.14-.1,6.71-3.89c.34-.2.68-.53,1-.53s.68.33,1,.53l6.73,3.9L15.56,9.92Zm8.21,4.89a.78.78,0,0,1-.4-.18l-5-2.85a.67.67,0,0,0-1,.18.68.68,0,0,0,.36.95l5,2.89.31.18-7,4.09a.32.32,0,0,1-.05-.26V13.13a.39.39,0,0,1,.19-.39l7.43-4.25.15-.07Z" transform="translate(-1.31 -1.39)"/></svg>